STARTFONT 2.1
COMMENT converted Oberon font (using FontToBDF by R.Crelier 10.1.91)
FONT Math20.Scn.Fnt
SIZE 20 75 75
FONTBOUNDINGBOX  19 22 0 -6
STARTPROPERTIES 3
FONT_ASCENT 16
FONT_DESCENT 6
DEFAULT_CHAR 0
ENDPROPERTIES
CHARS 96
STARTCHAR c0
ENCODING -1 0
SWIDTH 0 0
DWIDTH 0 0
BBX 0 0 0 0
BITMAP
ENDCHAR
STARTCHAR c32
ENCODING -1 32
SWIDTH 419 0
DWIDTH 13 0
BBX 11 14 1 0
BITMAP
0780
1860
2800
4800
4800
8800
8800
8800
8800
8800
4800
4800
3860
0F80
ENDCHAR
STARTCHAR c33
ENCODING -1 33
SWIDTH 483 0
DWIDTH 15 0
BBX 12 14 2 0
BITMAP
FF80
8840
8820
8820
8820
8820
8840
8F80
8880
8840
8820
8820
8810
8810
ENDCHAR
STARTCHAR c34
ENCODING -1 34
SWIDTH 161 0
DWIDTH 5 0
BBX 1 5 2 10
BITMAP
80
80
80
80
80
ENDCHAR
STARTCHAR c35
ENCODING -1 35
SWIDTH 387 0
DWIDTH 12 0
BBX 10 11 1 0
BITMAP
00C0
0300
0C00
3000
C000
3000
0C00
0300
00C0
0000
FFC0
ENDCHAR
STARTCHAR c36
ENCODING -1 36
SWIDTH 354 0
DWIDTH 11 0
BBX 11 17 0 -1
BITMAP
0020
0020
0040
0080
0080
0100
0200
0200
0400
0800
0800
1000
2000
2000
4000
8000
8000
ENDCHAR
STARTCHAR c37
ENCODING -1 37
SWIDTH 548 0
DWIDTH 17 0
BBX 15 8 1 2
BITMAP
3838
4444
8282
8102
8102
8282
4444
3838
ENDCHAR
STARTCHAR c38
ENCODING -1 38
SWIDTH 193 0
DWIDTH 6 0
BBX 2 2 2 12
BITMAP
C0
C0
ENDCHAR
STARTCHAR c39
ENCODING -1 39
SWIDTH 387 0
DWIDTH 12 0
BBX 11 11 0 0
BITMAP
0FE0
0060
00A0
0120
0220
0420
0820
1000
2000
4000
8000
ENDCHAR
STARTCHAR c40
ENCODING -1 40
SWIDTH 387 0
DWIDTH 12 0
BBX 11 11 1 0
BITMAP
FE00
C000
A000
9000
8800
8400
8200
0100
0080
0040
0020
ENDCHAR
STARTCHAR c41
ENCODING -1 41
SWIDTH 387 0
DWIDTH 12 0
BBX 11 11 1 0
BITMAP
0020
0040
0080
0100
8200
8400
8800
9000
A000
C000
FE00
ENDCHAR
STARTCHAR c42
ENCODING -1 42
SWIDTH 387 0
DWIDTH 12 0
BBX 11 11 0 0
BITMAP
8000
4000
2000
1000
0820
0420
0220
0120
00A0
0060
0FE0
ENDCHAR
STARTCHAR c43
ENCODING -1 43
SWIDTH 548 0
DWIDTH 17 0
BBX 15 9 1 1
BITMAP
0820
1010
2008
4004
FFFE
4004
2008
1010
0820
ENDCHAR
STARTCHAR c44
ENCODING -1 44
SWIDTH 483 0
DWIDTH 15 0
BBX 13 9 1 1
BITMAP
0800
1000
2000
4000
FFF8
4000
2000
1000
0800
ENDCHAR
STARTCHAR c45
ENCODING -1 45
SWIDTH 354 0
DWIDTH 11 0
BBX 9 14 1 0
BITMAP
0800
1C00
2A00
4900
8880
0800
0800
0800
0800
0800
0800
0800
0800
0800
ENDCHAR
STARTCHAR c46
ENCODING -1 46
SWIDTH 483 0
DWIDTH 15 0
BBX 13 9 1 1
BITMAP
0080
0040
0020
0010
FFF8
0010
0020
0040
0080
ENDCHAR
STARTCHAR c47
ENCODING -1 47
SWIDTH 354 0
DWIDTH 11 0
BBX 9 14 1 0
BITMAP
0800
0800
0800
0800
0800
0800
0800
0800
0800
8880
4900
2A00
1C00
0800
ENDCHAR
STARTCHAR c48
ENCODING -1 48
SWIDTH 258 0
DWIDTH 8 0
BBX 6 6 1 9
BITMAP
78
84
84
84
84
78
ENDCHAR
STARTCHAR c49
ENCODING -1 49
SWIDTH 354 0
DWIDTH 11 0
BBX 9 11 1 0
BITMAP
0800
0800
0800
0800
FF80
0800
0800
0800
0800
0000
FF80
ENDCHAR
STARTCHAR c50
ENCODING -1 50
SWIDTH 225 0
DWIDTH 7 0
BBX 3 5 2 9
BITMAP
A0
A0
A0
A0
A0
ENDCHAR
STARTCHAR c51
ENCODING -1 51
SWIDTH 387 0
DWIDTH 12 0
BBX 10 11 1 0
BITMAP
C000
3000
0C00
0300
00C0
0300
0C00
3000
C000
0000
FFC0
ENDCHAR
STARTCHAR c52
ENCODING -1 52
SWIDTH 354 0
DWIDTH 11 0
BBX 9 9 1 1
BITMAP
8080
4100
2200
1400
0800
1400
2200
4100
8080
ENDCHAR
STARTCHAR c53
ENCODING -1 53
SWIDTH 483 0
DWIDTH 15 0
BBX 13 8 1 2
BITMAP
3838
4440
8280
8100
8100
8280
4440
3838
ENDCHAR
STARTCHAR c54
ENCODING -1 54
SWIDTH 354 0
DWIDTH 11 0
BBX 9 15 1 0
BITMAP
E000
1800
0400
0200
0100
0100
0080
3C80
4280
8080
8080
8100
8100
4200
3C00
ENDCHAR
STARTCHAR c55
ENCODING -1 55
SWIDTH 290 0
DWIDTH 9 0
BBX 5 5 2 3
BITMAP
70
F8
F8
F8
70
ENDCHAR
STARTCHAR c56
ENCODING -1 56
SWIDTH 387 0
DWIDTH 12 0
BBX 10 9 1 1
BITMAP
0C00
0C00
0000
0000
FFC0
0000
0000
0C00
0C00
ENDCHAR
STARTCHAR c57
ENCODING -1 57
SWIDTH 387 0
DWIDTH 12 0
BBX 10 12 1 0
BITMAP
0200
0200
0200
0400
FFC0
0400
0800
FFC0
0800
1000
1000
1000
ENDCHAR
STARTCHAR c58
ENCODING -1 58
SWIDTH 387 0
DWIDTH 12 0
BBX 10 7 1 2
BITMAP
FFC0
0000
0000
FFC0
0000
0000
FFC0
ENDCHAR
STARTCHAR c59
ENCODING -1 59
SWIDTH 387 0
DWIDTH 12 0
BBX 10 7 1 2
BITMAP
7040
8C40
8380
0000
7040
8C40
8380
ENDCHAR
STARTCHAR c60
ENCODING -1 60
SWIDTH 387 0
DWIDTH 12 0
BBX 10 2 1 0
BITMAP
CCC0
CCC0
ENDCHAR
STARTCHAR c61
ENCODING -1 61
SWIDTH 225 0
DWIDTH 7 0
BBX 1 17 3 -3
BITMAP
80
80
80
80
80
80
80
80
80
80
80
80
80
80
80
80
80
ENDCHAR
STARTCHAR c62
ENCODING -1 62
SWIDTH 290 0
DWIDTH 9 0
BBX 9 1 0 5
BITMAP
FF80
ENDCHAR
STARTCHAR c63
ENCODING -1 63
SWIDTH 419 0
DWIDTH 13 0
BBX 11 9 1 -5
BITMAP
0020
0020
1020
2020
4020
FFE0
4000
2000
1000
ENDCHAR
STARTCHAR c64
ENCODING -1 64
SWIDTH 419 0
DWIDTH 13 0
BBX 12 15 1 0
BITMAP
4080
4060
2050
2040
1040
2880
2880
4480
4280
4280
2100
2080
2080
2040
C040
ENDCHAR
STARTCHAR c65
ENCODING -1 65
SWIDTH 387 0
DWIDTH 12 0
BBX 10 15 1 0
BITMAP
1C00
2300
40C0
8080
8100
8200
6100
0100
0080
0080
0040
0040
6040
9080
0F00
ENDCHAR
STARTCHAR c66
ENCODING -1 66
SWIDTH 516 0
DWIDTH 16 0
BBX 15 15 1 0
BITMAP
1C40
62A0
8118
810C
8110
4120
3140
09C0
1120
0110
0110
0210
0208
640A
980C
ENDCHAR
STARTCHAR c67
ENCODING -1 67
SWIDTH 451 0
DWIDTH 14 0
BBX 11 17 2 -6
BITMAP
4380
4440
8820
8820
9020
5020
5020
6040
2040
2080
6300
5000
9000
9000
9000
9000
6000
ENDCHAR
STARTCHAR c68
ENCODING -1 68
SWIDTH 419 0
DWIDTH 13 0
BBX 11 11 1 0
BITMAP
1F00
2080
4040
9120
8A20
8420
8A20
9120
4040
2080
1F00
ENDCHAR
STARTCHAR c69
ENCODING -1 69
SWIDTH 419 0
DWIDTH 13 0
BBX 11 11 1 0
BITMAP
1F00
2080
4440
8420
8420
BFA0
8420
8420
4440
2080
1F00
ENDCHAR
STARTCHAR c70
ENCODING -1 70
SWIDTH 419 0
DWIDTH 13 0
BBX 11 15 1 -2
BITMAP
0100
0100
1F00
2280
4240
8220
8420
8420
8420
8820
4840
2880
1F00
1000
1000
ENDCHAR
STARTCHAR c71
ENCODING -1 71
SWIDTH 419 0
DWIDTH 13 0
BBX 11 8 1 1
BITMAP
1F00
2080
4040
8020
8020
8020
8020
8020
ENDCHAR
STARTCHAR c72
ENCODING -1 72
SWIDTH 419 0
DWIDTH 13 0
BBX 11 8 1 2
BITMAP
8020
8020
8020
8020
8020
4040
2080
1F00
ENDCHAR
STARTCHAR c73
ENCODING -1 73
SWIDTH 322 0
DWIDTH 10 0
BBX 8 11 1 0
BITMAP
F8
04
02
01
01
01
01
01
02
04
F8
ENDCHAR
STARTCHAR c74
ENCODING -1 74
SWIDTH 290 0
DWIDTH 9 0
BBX 7 11 1 0
BITMAP
F8
04
02
02
02
02
02
04
F8
00
FE
ENDCHAR
STARTCHAR c75
ENCODING -1 75
SWIDTH 322 0
DWIDTH 10 0
BBX 9 15 1 -2
BITMAP
0100
0100
1F80
2200
4200
8200
8400
8400
8400
8800
4800
2800
1F00
1000
1000
ENDCHAR
STARTCHAR c76
ENCODING -1 76
SWIDTH 322 0
DWIDTH 10 0
BBX 8 11 1 0
BITMAP
1F
20
40
80
80
80
80
80
40
20
1F
ENDCHAR
STARTCHAR c77
ENCODING -1 77
SWIDTH 290 0
DWIDTH 9 0
BBX 7 11 1 0
BITMAP
3E
40
80
80
80
80
80
40
3E
00
FE
ENDCHAR
STARTCHAR c78
ENCODING -1 78
SWIDTH 322 0
DWIDTH 10 0
BBX 8 11 1 0
BITMAP
1F
20
40
80
80
FF
80
80
40
20
1F
ENDCHAR
STARTCHAR c79
ENCODING -1 79
SWIDTH 322 0
DWIDTH 10 0
BBX 9 15 1 -2
BITMAP
0100
0100
1F80
2200
4200
8200
8400
FF00
8400
8800
4800
2800
1F00
1000
1000
ENDCHAR
STARTCHAR c80
ENCODING -1 80
SWIDTH 451 0
DWIDTH 14 0
BBX 13 12 1 -2
BITMAP
0040
0080
1100
0A00
0400
0C00
1200
2200
4100
FFF8
0100
0100
ENDCHAR
STARTCHAR c81
ENCODING -1 81
SWIDTH 419 0
DWIDTH 13 0
BBX 13 15 0 0
BITMAP
FFF8
4010
4010
2020
2020
2020
1040
1040
0880
0880
0880
0500
0500
0200
0200
ENDCHAR
STARTCHAR c82
ENCODING -1 82
SWIDTH 419 0
DWIDTH 13 0
BBX 11 15 1 0
BITMAP
8020
8020
8020
4040
4040
7FC0
2080
2080
1100
1100
1100
0A00
0A00
0400
0400
ENDCHAR
STARTCHAR c83
ENCODING -1 83
SWIDTH 354 0
DWIDTH 11 0
BBX 7 15 2 0
BITMAP
FE
02
02
02
02
02
02
FE
02
02
02
02
02
02
FE
ENDCHAR
STARTCHAR c84
ENCODING -1 84
SWIDTH 322 0
DWIDTH 10 0
BBX 8 11 1 0
BITMAP
F8
04
02
01
01
FF
01
01
02
04
F8
ENDCHAR
STARTCHAR c85
ENCODING -1 85
SWIDTH 451 0
DWIDTH 14 0
BBX 10 15 2 0
BITMAP
FFC0
8040
8040
8040
8040
8040
8040
8040
8040
8040
8040
8040
8040
8040
8040
ENDCHAR
STARTCHAR c86
ENCODING -1 86
SWIDTH 322 0
DWIDTH 10 0
BBX 9 15 1 0
BITMAP
0080
0080
0080
0100
0100
E100
2200
2200
2200
1400
1400
1400
0800
0800
0800
ENDCHAR
STARTCHAR c87
ENCODING -1 87
SWIDTH 193 0
DWIDTH 6 0
BBX 2 2 2 5
BITMAP
C0
C0
ENDCHAR
STARTCHAR c88
ENCODING -1 88
SWIDTH 387 0
DWIDTH 12 0
BBX 10 5 1 2
BITMAP
FFC0
0040
0040
0040
0040
ENDCHAR
STARTCHAR c89
ENCODING -1 89
SWIDTH 354 0
DWIDTH 11 0
BBX 9 11 1 0
BITMAP
0800
0800
1400
1400
2200
2200
4100
4100
8080
8080
8080
ENDCHAR
STARTCHAR c90
ENCODING -1 90
SWIDTH 354 0
DWIDTH 11 0
BBX 9 11 1 0
BITMAP
8080
8080
8080
4100
4100
2200
2200
1400
1400
0800
0800
ENDCHAR
STARTCHAR c91
ENCODING -1 91
SWIDTH 645 0
DWIDTH 20 0
BBX 18 11 1 0
BITMAP
040800
080400
100200
3FFF00
400080
800040
400080
3FFF00
100200
080400
040800
ENDCHAR
STARTCHAR c92
ENCODING -1 92
SWIDTH 548 0
DWIDTH 17 0
BBX 14 11 1 0
BITMAP
0400
0800
1000
3FFC
4000
8000
4000
3FFC
1000
0800
0400
ENDCHAR
STARTCHAR c93
ENCODING -1 93
SWIDTH 419 0
DWIDTH 13 0
BBX 11 15 1 0
BITMAP
0400
0A00
1100
3180
5140
9120
1100
1100
1100
1100
1100
1100
1100
1100
1100
ENDCHAR
STARTCHAR c94
ENCODING -1 94
SWIDTH 548 0
DWIDTH 17 0
BBX 14 11 2 0
BITMAP
0080
0040
0020
FFF0
0008
0004
0008
FFF0
0020
0040
0080
ENDCHAR
STARTCHAR c95
ENCODING -1 95
SWIDTH 419 0
DWIDTH 13 0
BBX 11 15 1 0
BITMAP
1100
1100
1100
1100
1100
1100
1100
1100
1100
9120
5140
3180
1100
0A00
0400
ENDCHAR
STARTCHAR c96
ENCODING -1 96
SWIDTH 354 0
DWIDTH 11 0
BBX 7 11 2 0
BITMAP
FE
FE
FE
FE
FE
FE
FE
FE
FE
FE
FE
ENDCHAR
STARTCHAR c97
ENCODING -1 97
SWIDTH 225 0
DWIDTH 7 0
BBX 5 18 1 -3
BITMAP
08
08
10
10
20
20
40
40
80
80
40
40
20
20
10
10
08
08
ENDCHAR
STARTCHAR c98
ENCODING -1 98
SWIDTH 419 0
DWIDTH 13 0
BBX 10 9 2 1
BITMAP
8000
8000
8000
8000
FFC0
8000
8000
8000
8000
ENDCHAR
STARTCHAR c99
ENCODING -1 99
SWIDTH 419 0
DWIDTH 13 0
BBX 10 11 2 0
BITMAP
8000
8000
8000
FFC0
8000
8000
8000
FFC0
8000
8000
8000
ENDCHAR
STARTCHAR c100
ENCODING -1 100
SWIDTH 419 0
DWIDTH 13 0
BBX 10 9 1 1
BITMAP
0040
0040
0040
0040
FFC0
0040
0040
0040
0040
ENDCHAR
STARTCHAR c101
ENCODING -1 101
SWIDTH 354 0
DWIDTH 11 0
BBX 9 15 1 0
BITMAP
FF80
4000
2000
1000
0800
0400
0200
0100
0200
0400
0800
1000
2000
4000
FF80
ENDCHAR
STARTCHAR c102
ENCODING -1 102
SWIDTH 419 0
DWIDTH 13 0
BBX 12 11 0 0
BITMAP
0030
00C0
0310
0C60
3180
C600
3180
0C60
0310
00C0
0030
ENDCHAR
STARTCHAR c103
ENCODING -1 103
SWIDTH 419 0
DWIDTH 13 0
BBX 12 11 1 0
BITMAP
C000
3000
8C00
6300
18C0
0630
18C0
6300
8C00
3000
C000
ENDCHAR
STARTCHAR c104
ENCODING -1 104
SWIDTH 258 0
DWIDTH 8 0
BBX 5 11 2 0
BITMAP
F8
80
80
80
80
80
80
80
80
80
80
ENDCHAR
STARTCHAR c105
ENCODING -1 105
SWIDTH 258 0
DWIDTH 8 0
BBX 5 11 1 0
BITMAP
F8
08
08
08
08
08
08
08
08
08
08
ENDCHAR
STARTCHAR c106
ENCODING -1 106
SWIDTH 258 0
DWIDTH 8 0
BBX 5 11 2 0
BITMAP
80
80
80
80
80
80
80
80
80
80
F8
ENDCHAR
STARTCHAR c107
ENCODING -1 107
SWIDTH 258 0
DWIDTH 8 0
BBX 5 11 1 0
BITMAP
08
08
08
08
08
08
08
08
08
08
F8
ENDCHAR
STARTCHAR c108
ENCODING -1 108
SWIDTH 258 0
DWIDTH 8 0
BBX 4 11 2 0
BITMAP
90
90
90
90
90
90
90
90
90
90
90
ENDCHAR
STARTCHAR c109
ENCODING -1 109
SWIDTH 354 0
DWIDTH 11 0
BBX 9 11 1 0
BITMAP
FF80
0000
0800
0800
0800
0800
FF80
0800
0800
0800
0800
ENDCHAR
STARTCHAR c110
ENCODING -1 110
SWIDTH 290 0
DWIDTH 9 0
BBX 6 11 1 0
BITMAP
04
04
08
08
30
C0
30
08
08
04
04
ENDCHAR
STARTCHAR c111
ENCODING -1 111
SWIDTH 290 0
DWIDTH 9 0
BBX 6 11 2 0
BITMAP
80
80
40
40
30
0C
30
40
40
80
80
ENDCHAR
STARTCHAR c112
ENCODING -1 112
SWIDTH 387 0
DWIDTH 12 0
BBX 10 6 1 3
BITMAP
7040
8840
8440
8380
0000
FFC0
ENDCHAR
STARTCHAR c113
ENCODING -1 113
SWIDTH 225 0
DWIDTH 7 0
BBX 5 18 1 -3
BITMAP
80
80
40
40
20
20
10
10
08
08
10
10
20
20
40
40
80
80
ENDCHAR
STARTCHAR c114
ENCODING -1 114
SWIDTH 322 0
DWIDTH 10 0
BBX 9 15 0 -2
BITMAP
0400
0400
7C00
0A00
0900
0880
1080
1080
1080
2080
2100
2200
FC00
4000
4000
ENDCHAR
STARTCHAR c115
ENCODING -1 115
SWIDTH 354 0
DWIDTH 11 0
BBX 10 15 0 -6
BITMAP
0600
0100
0080
0040
0040
0040
0840
1040
2080
4100
FE00
4000
2000
1000
0800
ENDCHAR
STARTCHAR c116
ENCODING -1 116
SWIDTH 516 0
DWIDTH 16 0
BBX 14 11 1 0
BITMAP
1000
2000
4000
FFF8
4020
2010
1008
FFFC
0008
0010
0020
ENDCHAR
STARTCHAR c117
ENCODING -1 117
SWIDTH 322 0
DWIDTH 10 0
BBX 9 11 1 -5
BITMAP
FC00
0400
0400
0400
0400
0400
0400
2480
1500
0E00
0400
ENDCHAR
STARTCHAR c118
ENCODING -1 118
SWIDTH 354 0
DWIDTH 11 0
BBX 8 18 2 -3
BITMAP
3C
43
80
80
80
70
2E
41
81
81
82
74
0E
01
01
01
C2
3C
ENDCHAR
STARTCHAR c119
ENCODING -1 119
SWIDTH 516 0
DWIDTH 16 0
BBX 14 11 1 0
BITMAP
1000
2000
4000
FFF8
0000
0000
0000
FFFC
0008
0010
0020
ENDCHAR
STARTCHAR c120
ENCODING -1 120
SWIDTH 225 0
DWIDTH 7 0
BBX 7 20 0 -5
BITMAP
06
08
10
10
10
10
10
10
10
10
10
10
10
10
10
10
10
10
20
C0
ENDCHAR
STARTCHAR c121
ENCODING -1 121
SWIDTH 290 0
DWIDTH 9 0
BBX 7 20 1 -5
BITMAP
06
08
10
10
10
10
10
7C
92
92
92
92
7C
10
10
10
10
10
20
C0
ENDCHAR
STARTCHAR c122
ENCODING -1 122
SWIDTH 387 0
DWIDTH 12 0
BBX 10 8 1 1
BITMAP
C0C0
C0C0
0000
0000
0000
0000
0C00
0C00
ENDCHAR
STARTCHAR c123
ENCODING -1 123
SWIDTH 387 0
DWIDTH 12 0
BBX 10 8 1 2
BITMAP
0C00
0C00
0000
0000
FFC0
0000
0000
FFC0
ENDCHAR
STARTCHAR c124
ENCODING -1 124
SWIDTH 129 0
DWIDTH 4 0
BBX 2 2 1 12
BITMAP
C0
C0
ENDCHAR
STARTCHAR c125
ENCODING -1 125
SWIDTH 354 0
DWIDTH 11 0
BBX 9 16 1 -1
BITMAP
0800
0800
0800
0800
FF80
0800
0800
0800
0800
0800
0800
0800
0800
0800
0800
0800
ENDCHAR
STARTCHAR c126
ENCODING -1 126
SWIDTH 322 0
DWIDTH 10 0
BBX 8 17 1 -3
BITMAP
02
02
02
1F
24
44
84
88
88
88
90
91
52
3C
20
20
20
ENDCHAR
ENDFONT
